<svg xmlns="http://www.w3.org/2000/svg" width="32" height="32" viewBox="0 0 32 32" fill="none">
  <path d="M16 4C13.7909 4 12 5.79086 12 8V12H8C5.79086 12 4 13.7909 4 16C4 18.2091 5.79086 20 8 20H12V24C12 26.2091 13.7909 28 16 28C18.2091 28 20 26.2091 20 24V20H24C26.2091 20 28 18.2091 28 16C28 13.7909 26.2091 12 24 12H20V8C20 5.79086 18.2091 4 16 4Z" fill="#40916C"/>
  <path d="M12 8C12 5.79086 13.7909 4 16 4V4C18.2091 4 20 5.79086 20 8V12H12V8Z" fill="#2D6A4F"/>
  <path d="M20 24C20 26.2091 18.2091 28 16 28V28C13.7909 28 12 26.2091 12 24V20H20V24Z" fill="#2D6A4F"/>
  <path d="M24 12C26.2091 12 28 13.7909 28 16V16C28 18.2091 26.2091 20 24 20H20V12H24Z" fill="#D6782D"/>
  <path d="M12 20H8C5.79086 20 4 18.2091 4 16V16C4 13.7909 5.79086 12 8 12H12V20Z" fill="#D6782D"/>
  <circle cx="16" cy="16" r="4" fill="#B7B7A4"/>
</svg>