<svg xmlns="http://www.w3.org/2000/svg" width="180" height="48" viewBox="0 0 180 48" fill="none">
  <path d="M24 7C20.6863 7 18 9.68629 18 13V19H12C8.68629 19 6 21.6863 6 25C6 28.3137 8.68629 31 12 31H18V37C18 40.3137 20.6863 43 24 43C27.3137 43 30 40.3137 30 37V31H36C39.3137 31 42 28.3137 42 25C42 21.6863 39.3137 19 36 19H30V13C30 9.68629 27.3137 7 24 7Z" fill="#40916C"/>
  <path d="M18 13C18 9.68629 20.6863 7 24 7V7C27.3137 7 30 9.68629 30 13V19H18V13Z" fill="#2D6A4F"/>
  <path d="M30 37C30 40.3137 27.3137 43 24 43V43C20.6863 43 18 40.3137 18 37V31H30V37Z" fill="#2D6A4F"/>
  <path d="M36 19C39.3137 19 42 21.6863 42 25V25C42 28.3137 39.3137 31 36 31H30V19H36Z" fill="#D6782D"/>
  <path d="M18 31H12C8.68629 31 6 28.3137 6 25V25C6 21.6863 8.68629 19 12 19H18V31Z" fill="#D6782D"/>
  <circle cx="24" cy="25" r="6" fill="#B7B7A4"/>
  <path d="M59.336 33.448C58.216 33.448 57.208 33.248 56.312 32.848C55.432 32.432 54.712 31.848 54.152 31.096C53.608 30.328 53.336 29.448 53.336 28.456C53.336 27.448 53.608 26.56 54.152 25.792C54.712 25.024 55.504 24.432 56.528 24.016C57.552 23.584 58.76 23.368 60.152 23.368C60.904 23.368 61.624 23.432 62.312 23.56C63.016 23.672 63.624 23.848 64.136 24.088C64.664 24.328 65.016 24.592 65.192 24.88C65.384 25.168 65.48 25.48 65.48 25.816C65.48 26.168 65.384 26.472 65.192 26.728C65 26.968 64.76 27.088 64.472 27.088C64.12 27.088 63.752 26.928 63.368 26.608C62.984 26.288 62.504 26.024 61.928 25.816C61.368 25.592 60.704 25.48 59.936 25.48C59.296 25.48 58.72 25.608 58.208 25.864C57.712 26.12 57.328 26.48 57.056 26.944C56.784 27.392 56.664 27.912 56.696 28.504C56.728 29.096 56.896 29.608 57.2 30.04C57.52 30.472 57.936 30.8 58.448 31.024C58.976 31.248 59.552 31.36 60.176 31.36C60.88 31.36 61.512 31.256 62.072 31.048C62.648 30.824 63.128 30.56 63.512 30.256C63.912 29.936 64.28 29.776 64.616 29.776C64.92 29.776 65.16 29.888 65.336 30.112C65.528 30.336 65.624 30.624 65.624 30.976C65.624 31.328 65.528 31.648 65.336 31.936C65.144 32.208 64.784 32.464 64.256 32.704C63.728 32.944 63.104 33.136 62.384 33.28C61.68 33.392 60.968 33.448 60.248 33.448H59.336ZM68.0125 33C67.6605 33 67.3725 32.904 67.1485 32.712C66.9245 32.504 66.8125 32.224 66.8125 31.872V19.056C66.8125 18.688 66.9245 18.408 67.1485 18.216C67.3725 18.008 67.6605 17.904 68.0125 17.904C68.3645 17.904 68.6445 18.008 68.8525 18.216C69.0765 18.408 69.1885 18.688 69.1885 19.056V31.872C69.1885 32.224 69.0765 32.504 68.8525 32.712C68.6445 32.904 68.3645 33 68.0125 33ZM78.5605 33.448C77.7485 33.448 77.0125 33.304 76.3525 33.016C75.6925 32.728 75.1645 32.32 74.7645 31.792C74.3645 31.248 74.1645 30.632 74.1645 29.944C74.1645 29.288 74.3405 28.712 74.6925 28.216C75.0605 27.704 75.5965 27.304 76.3005 27.016C77.0045 26.712 77.8725 26.56 78.9045 26.56C79.3365 26.56 79.7605 26.592 80.1765 26.656C80.6085 26.704 81.0005 26.776 81.3525 26.872V26.056C81.3525 25.144 81.1205 24.472 80.6565 24.04C80.1925 23.592 79.4885 23.368 78.5445 23.368C77.9325 23.368 77.3845 23.456 76.9045 23.632C76.4245 23.808 75.9845 24.04 75.5845 24.328C75.3445 24.488 75.1365 24.568 74.9605 24.568C74.7685 24.568 74.6005 24.496 74.4565 24.352C74.3125 24.192 74.2405 24 74.2405 23.776C74.2405 23.536 74.3285 23.32 74.5045 23.128C74.6965 22.92 74.9765 22.72 75.3445 22.528C75.7125 22.336 76.1605 22.176 76.6885 22.048C77.2165 21.92 77.7965 21.856 78.4245 21.856C79.4405 21.856 80.2885 22.016 80.9645 22.336C81.6565 22.64 82.1765 23.12 82.5285 23.776C82.8805 24.416 83.0565 25.232 83.0565 26.224V31.872C83.0565 32.208 82.9445 32.48 82.7205 32.688C82.5125 32.896 82.2485 33 81.9285 33C81.6085 33 81.3365 32.896 81.1125 32.688C80.8885 32.48 80.7765 32.208 80.7765 31.872V31.312C80.4245 31.856 79.9285 32.288 79.2885 32.608C78.6485 32.928 77.8965 33.088 77.0045 33.088C76.8885 33.328 76.7805 33.448 76.6805 33.448H78.5605ZM79.0725 31.984C79.9645 31.984 80.7045 31.752 81.2885 31.288C81.8885 30.808 82.1885 30.088 82.1885 29.128V28.12C81.9165 28.04 81.6005 27.976 81.2405 27.928C80.8965 27.864 80.5605 27.832 80.2325 27.832C79.5565 27.832 78.9845 27.912 78.5205 28.072C78.0565 28.216 77.7125 28.424 77.4885 28.696C77.2645 28.968 77.1525 29.304 77.1525 29.704C77.1525 30.296 77.3605 30.76 77.7765 31.096C78.1925 31.416 78.5845 31.6 78.9525 31.648L79.0725 31.984ZM87.2334 33C86.8814 33 86.5854 32.904 86.3454 32.712C86.1214 32.504 86.0094 32.224 86.0094 31.872V24.16C86.0094 23.808 86.1214 23.536 86.3454 23.344C86.5854 23.136 86.8814 23.032 87.2334 23.032C87.5854 23.032 87.8734 23.136 88.0974 23.344C88.3214 23.536 88.4334 23.808 88.4334 24.16V24.928C88.7854 24.256 89.2494 23.736 89.8254 23.368C90.4174 22.984 91.0494 22.792 91.7254 22.792C92.0294 22.792 92.2694 22.872 92.4454 23.032C92.6374 23.192 92.7334 23.448 92.7334 23.8C92.7334 24.136 92.6454 24.4 92.4694 24.592C92.2934 24.768 92.0214 24.856 91.6534 24.856L91.3894 24.832C90.5774 24.784 89.8894 24.984 89.3254 25.432C88.7774 25.864 88.5034 26.488 88.5034 27.304V31.872C88.5034 32.224 88.3914 32.504 88.1674 32.712C87.9594 32.904 87.6694 33 87.3014 33H87.2334ZM93.8902 33C93.5382 33 93.2422 32.904 93.0022 32.712C92.7782 32.504 92.6662 32.224 92.6662 31.872V24.16C92.6662 23.808 92.7782 23.536 93.0022 23.344C93.2422 23.136 93.5382 23.032 93.8902 23.032C94.2582 23.032 94.5462 23.136 94.7542 23.344C94.9782 23.536 95.0902 23.808 95.0902 24.16V24.88C95.4902 24.24 96.0142 23.736 96.6622 23.368C97.3262 22.984 98.0502 22.792 98.8342 22.792C99.7102 22.792 100.47 23 101.114 23.416C101.774 23.816 102.254 24.36 102.574 25.048C102.91 24.296 103.426 23.72 104.118 23.32C104.826 22.904 105.626 22.7 106.518 22.7C107.686 22.7 108.67 23.064 109.47 23.8C110.286 24.519 110.662 25.68 110.662 27.28V31.872C110.662 32.208 110.55 32.48 110.326 32.688C110.118 32.896 109.846 33 109.51 33C109.158 33 108.878 32.896 108.67 32.688C108.462 32.48 108.358 32.208 108.358 31.872V27.328C108.358 26.24 108.11 25.464 107.614 25C107.134 24.52 106.51 24.28 105.742 24.28C104.974 24.28 104.326 24.536 103.798 25.048C103.286 25.56 103.03 26.304 103.03 27.28V31.872C103.03 32.208 102.918 32.48 102.694 32.688C102.486 32.896 102.214 33 101.878 33C101.526 33 101.246 32.896 101.038 32.688C100.83 32.48 100.726 32.208 100.726 31.872V27.328C100.726 26.24 100.478 25.464 99.9822 25C99.5022 24.52 98.8782 24.28 98.1102 24.28C97.3422 24.28 96.6942 24.536 96.1662 25.048C95.6542 25.56 95.3982 26.304 95.3982 27.28V31.872C95.3982 32.208 95.2862 32.48 95.0622 32.688C94.8542 32.896 94.5742 33 94.2382 33H93.8902ZM117.223 33.448C116.439 33.448 115.735 33.32 115.111 33.064C114.503 32.792 114.015 32.432 113.647 31.984C113.295 31.52 113.119 31.008 113.119 30.448C113.119 30.064 113.199 29.736 113.359 29.464C113.519 29.176 113.719 29.032 113.959 29.032C114.231 29.032 114.463 29.12 114.655 29.296C114.847 29.456 114.943 29.656 114.943 29.896C114.943 30.04 114.879 30.224 114.751 30.448C114.735 30.576 114.727 30.696 114.727 30.808C114.727 31.224 114.975 31.56 115.471 31.816C115.983 32.056 116.535 32.176 117.127 32.176C117.847 32.176 118.439 32.04 118.903 31.768C119.383 31.48 119.623 31.064 119.623 30.52C119.623 30.12 119.495 29.8 119.239 29.56C118.999 29.304 118.679 29.096 118.279 28.936C117.895 28.76 117.407 28.576 116.815 28.384C116.015 28.128 115.335 27.864 114.775 27.592C114.231 27.304 113.783 26.928 113.431 26.464C113.079 25.984 112.903 25.376 112.903 24.64C112.903 23.968 113.087 23.36 113.455 22.816C113.839 22.272 114.375 21.848 115.063 21.544C115.751 21.224 116.535 21.064 117.415 21.064C118.055 21.064 118.647 21.168 119.191 21.376C119.751 21.568 120.215 21.84 120.583 22.192C120.951 22.544 121.135 22.952 121.135 23.416C121.135 23.752 121.047 24.024 120.871 24.232C120.711 24.424 120.511 24.52 120.271 24.52C120.015 24.52 119.791 24.44 119.599 24.28C119.423 24.12 119.335 23.936 119.335 23.728C119.335 23.632 119.359 23.528 119.407 23.416C119.471 23.288 119.503 23.16 119.503 23.032C119.503 22.728 119.295 22.48 118.879 22.288C118.479 22.096 118.031 22 117.535 22C116.991 22 116.503 22.088 116.071 22.264C115.655 22.44 115.327 22.68 115.087 22.984C114.863 23.288 114.751 23.624 114.751 23.992C114.751 24.44 114.895 24.8 115.183 25.072C115.487 25.344 115.863 25.576 116.311 25.768C116.759 25.944 117.287 26.136 117.895 26.344C118.583 26.6 119.175 26.864 119.671 27.136C120.183 27.408 120.583 27.768 120.871 28.216C121.159 28.648 121.303 29.2 121.303 29.872C121.303 30.768 120.895 31.496 120.079 32.056C119.279 32.6 118.295 32.872 117.127 32.872C116.487 33.256 115.871 33.448 115.279 33.448H117.223ZM125.347 33.448C124.563 33.448 123.859 33.32 123.235 33.064C122.627 32.792 122.139 32.432 121.771 31.984C121.419 31.52 121.243 31.008 121.243 30.448C121.243 30.064 121.323 29.736 121.483 29.464C121.643 29.176 121.843 29.032 122.083 29.032C122.355 29.032 122.587 29.12 122.779 29.296C122.971 29.456 123.067 29.656 123.067 29.896C123.067 30.04 123.003 30.224 122.875 30.448C122.859 30.576 122.851 30.696 122.851 30.808C122.851 31.224 123.099 31.56 123.595 31.816C124.107 32.056 124.659 32.176 125.251 32.176C125.971 32.176 126.563 32.04 127.027 31.768C127.507 31.48 127.747 31.064 127.747 30.52C127.747 30.12 127.619 29.8 127.363 29.56C127.123 29.304 126.803 29.096 126.403 28.936C126.019 28.76 125.531 28.576 124.939 28.384C124.139 28.128 123.459 27.864 122.899 27.592C122.355 27.304 121.907 26.928 121.555 26.464C121.203 25.984 121.027 25.376 121.027 24.64C121.027 23.968 121.211 23.36 121.579 22.816C121.963 22.272 122.499 21.848 123.187 21.544C123.875 21.224 124.659 21.064 125.539 21.064C126.179 21.064 126.771 21.168 127.315 21.376C127.875 21.568 128.339 21.84 128.707 22.192C129.075 22.544 129.259 22.952 129.259 23.416C129.259 23.752 129.171 24.024 128.995 24.232C128.835 24.424 128.635 24.52 128.395 24.52C128.139 24.52 127.915 24.44 127.723 24.28C127.547 24.12 127.459 23.936 127.459 23.728C127.459 23.632 127.483 23.528 127.531 23.416C127.595 23.288 127.627 23.16 127.627 23.032C127.627 22.728 127.419 22.48 127.003 22.288C126.603 22.096 126.155 22 125.659 22C125.115 22 124.627 22.088 124.195 22.264C123.779 22.44 123.451 22.68 123.211 22.984C122.987 23.288 122.875 23.624 122.875 23.992C122.875 24.44 123.019 24.8 123.307 25.072C123.611 25.344 123.987 25.576 124.435 25.768C124.883 25.944 125.411 26.136 126.019 26.344C126.707 26.6 127.299 26.864 127.795 27.136C128.307 27.408 128.707 27.768 128.995 28.216C129.283 28.648 129.427 29.2 129.427 29.872C129.427 30.768 129.019 31.496 128.203 32.056C127.403 32.6 126.419 32.872 125.251 32.872C124.611 33.256 123.995 33.448 123.403 33.448H125.347ZM139.399 33.448C138.311 33.448 137.335 33.256 136.471 32.872C135.623 32.472 134.959 31.928 134.479 31.24C133.999 30.536 133.759 29.728 133.759 28.816C133.759 27.904 133.983 27.08 134.431 26.344C134.879 25.608 135.495 25.024 136.279 24.592C137.079 24.16 137.983 23.944 138.991 23.944C139.935 23.944 140.743 24.136 141.415 24.52C142.087 24.888 142.591 25.392 142.927 26.032C143.279 26.656 143.455 27.368 143.455 28.168C143.455 28.728 143.303 29.088 142.999 29.248C142.695 29.408 142.207 29.488 141.535 29.488H136.063C136.159 30.224 136.463 30.808 136.975 31.24C137.487 31.656 138.191 31.888 139.087 31.936C139.663 31.936 140.167 31.848 140.599 31.672C141.047 31.48 141.391 31.28 141.631 31.072C141.887 30.848 142.095 30.736 142.255 30.736C142.447 30.736 142.607 30.808 142.735 30.952C142.879 31.08 142.951 31.248 142.951 31.456C142.951 31.696 142.847 31.912 142.639 32.104C142.431 32.296 142.087 32.496 141.607 32.704C141.143 32.896 140.623 33.064 140.047 33.208C139.471 33.352 138.903 33.424 138.343 33.424L139.399 33.448ZM141.175 28.072C141.175 27.528 141.047 27.064 140.791 26.68C140.551 26.28 140.215 25.976 139.783 25.768C139.367 25.544 138.887 25.432 138.343 25.432C137.815 25.432 137.335 25.544 136.903 25.768C136.487 25.976 136.151 26.28 135.895 26.68C135.655 27.064 135.535 27.528 135.535 28.072H141.175ZM145.146 33C144.794 33 144.498 32.904 144.258 32.712C144.034 32.504 143.922 32.224 143.922 31.872V19.056C143.922 18.688 144.034 18.408 144.258 18.216C144.482 18.008 144.77 17.904 145.122 17.904C145.474 17.904 145.762 18.008 145.986 18.216C146.21 18.408 146.322 18.688 146.322 19.056V31.872C146.322 32.224 146.21 32.504 145.986 32.712C145.778 32.904 145.498 33 145.146 33ZM153.494 33.448C152.534 33.448 151.678 33.256 150.926 32.872C150.19 32.472 149.606 31.928 149.174 31.24C148.758 30.536 148.55 29.728 148.55 28.816C148.55 27.904 148.758 27.08 149.174 26.344C149.606 25.608 150.182 25.024 150.902 24.592C151.622 24.16 152.414 23.944 153.278 23.944C154.046 23.944 154.734 24.12 155.342 24.472C155.95 24.824 156.422 25.304 156.758 25.912V24.16C156.758 23.808 156.87 23.536 157.094 23.344C157.334 23.136 157.622 23.032 157.958 23.032C158.31 23.032 158.598 23.136 158.822 23.344C159.046 23.536 159.158 23.808 159.158 24.16V33.544C159.158 34.952 158.726 36.016 157.862 36.736C157.014 37.472 155.822 37.84 154.286 37.84C153.678 37.84 153.07 37.776 152.462 37.648C151.854 37.536 151.326 37.376 150.878 37.168C150.446 36.976 150.23 36.744 150.23 36.472C150.23 36.264 150.31 36.088 150.47 35.944C150.646 35.8 150.846 35.728 151.07 35.728C151.214 35.728 151.438 35.792 151.742 35.92C152.046 36.048 152.414 36.16 152.846 36.256C153.294 36.368 153.774 36.424 154.286 36.424C155.326 36.424 156.118 36.184 156.662 35.704C157.222 35.24 157.502 34.536 157.502 33.592V31.072C157.166 31.68 156.694 32.168 156.086 32.536C155.494 32.888 154.806 33.064 154.022 33.064C153.91 33.32 153.782 33.448 153.638 33.448H153.494ZM154.622 31.768C155.278 31.768 155.838 31.608 156.302 31.288C156.766 30.952 157.126 30.52 157.382 29.992C157.638 29.448 157.766 28.88 157.766 28.288C157.766 27.68 157.638 27.12 157.382 26.608C157.126 26.08 156.766 25.656 156.302 25.336C155.838 25.016 155.278 24.856 154.622 24.856C153.966 24.856 153.398 25.016 152.918 25.336C152.454 25.656 152.094 26.08 151.838 26.608C151.582 27.12 151.454 27.68 151.454 28.288C151.454 28.88 151.582 29.448 151.838 29.992C152.094 30.52 152.454 30.952 152.918 31.288C153.398 31.608 153.966 31.768 154.622 31.768ZM166.538 33.448C165.498 33.448 164.578 33.256 163.778 32.872C162.978 32.488 162.354 31.952 161.906 31.264C161.458 30.56 161.234 29.744 161.234 28.816C161.234 27.872 161.458 27.048 161.906 26.344C162.354 25.624 162.978 25.072 163.778 24.688C164.578 24.288 165.498 24.088 166.538 24.088C167.578 24.088 168.498 24.288 169.298 24.688C170.098 25.072 170.722 25.624 171.17 26.344C171.618 27.048 171.842 27.872 171.842 28.816C171.842 29.744 171.618 30.56 171.17 31.264C170.722 31.952 170.098 32.488 169.298 32.872C168.498 33.256 167.578 33.448 166.538 33.448ZM166.538 31.912C167.962 31.912 168.746 30.88 168.89 28.816C168.794 26.736 168.01 25.696 166.538 25.696C165.082 25.696 164.298 26.744 164.186 28.84C164.298 30.888 165.082 31.912 166.538 31.912ZM175.01 33C174.658 33 174.362 32.904 174.122 32.712C173.898 32.504 173.786 32.224 173.786 31.872V24.16C173.786 23.824 173.898 23.552 174.122 23.344C174.362 23.136 174.658 23.032 175.01 23.032C175.378 23.032 175.674 23.136 175.898 23.344C176.138 23.552 176.258 23.824 176.258 24.16V24.928C176.61 24.272 177.074 23.752 177.65 23.368C178.226 22.984 178.882 22.792 179.618 22.792C179.938 22.792 180.186 22.872 180.362 23.032C180.554 23.192 180.65 23.448 180.65 23.8C180.65 24.136 180.562 24.4 180.386 24.592C180.226 24.768 179.954 24.856 179.57 24.856L179.306 24.832C178.378 24.784 177.618 24.984 177.026 25.432C176.45 25.864 176.162 26.488 176.162 27.304V31.872C176.162 32.224 176.05 32.504 175.826 32.712C175.618 32.904 175.33 33 174.962 33H175.01Z" fill="#2D6A4F"/>
</svg>